<?xml version="1.0" encoding="UTF-8" standalone="no"?>
<!-- Created with Inkscape (http://www.inkscape.org/) -->

<svg
   xmlns:dc="http://purl.org/dc/elements/1.1/"
   xmlns:cc="http://creativecommons.org/ns#"
   xmlns:rdf="http://www.w3.org/1999/02/22-rdf-syntax-ns#"
   xmlns:svg="http://www.w3.org/2000/svg"
   xmlns="http://www.w3.org/2000/svg"
   xmlns:sodipodi="http://sodipodi.sourceforge.net/DTD/sodipodi-0.dtd"
   xmlns:inkscape="http://www.inkscape.org/namespaces/inkscape"
   width="500mm"
   height="500mm"
   viewBox="0 0 500 500"
   version="1.1"
   id="svg8"
   inkscape:version="0.92.3 (2405546, 2018-03-11)"
   sodipodi:docname="cntrole de caixa.svg">
  <defs
     id="defs2" />
  <sodipodi:namedview
     id="base"
     pagecolor="#ffffff"
     bordercolor="#666666"
     borderopacity="1.0"
     inkscape:pageopacity="0.0"
     inkscape:pageshadow="2"
     inkscape:zoom="0.175"
     inkscape:cx="641.15231"
     inkscape:cy="1022.0426"
     inkscape:document-units="mm"
     inkscape:current-layer="layer1"
     showgrid="false"
     inkscape:window-width="1366"
     inkscape:window-height="708"
     inkscape:window-x="0"
     inkscape:window-y="27"
     inkscape:window-maximized="1" />
  <metadata
     id="metadata5">
    <rdf:RDF>
      <cc:Work
         rdf:about="">
        <dc:format>image/svg+xml</dc:format>
        <dc:type
           rdf:resource="http://purl.org/dc/dcmitype/StillImage" />
        <dc:title></dc:title>
      </cc:Work>
    </rdf:RDF>
  </metadata>
  <g
     inkscape:label="Layer 1"
     inkscape:groupmode="layer"
     id="layer1"
     transform="translate(0,203)">
    <g
       id="g507"
       transform="translate(8.692505)">
      <path
         d="m 243.39322,-57.158638 v -29.397148 h -21.72578 v 29.397148 h 21.72578"
         style="fill:#aedb2e;fill-opacity:1;fill-rule:nonzero;stroke:none;stroke-width:0.08990225"
         id="path34"
         inkscape:connector-curvature="0" />
      <path
         d="m 221.66744,54.481956 v 24.678168 h 21.72578 V 54.481956 h -21.72578"
         style="fill:#aedb2e;fill-opacity:1;fill-rule:nonzero;stroke:none;stroke-width:0.08990225"
         id="path36"
         inkscape:connector-curvature="0" />
      <path
         d="m 269.31295,-35.941722 c -0.88374,-0.880145 -2.4912,-2.080344 -4.82325,-3.592494 -2.33386,-1.513959 -5.17029,-2.993745 -8.50927,-4.444758 -3.34254,-1.447421 -6.96832,-2.676392 -10.87457,-3.687805 -3.90893,-1.007794 -7.87992,-1.51215 -11.91384,-1.51215 -7.18678,0 -12.54674,1.323364 -16.07452,3.970984 -3.53046,2.646728 -5.29524,6.367788 -5.29524,11.15778 0,2.775269 0.66168,5.076764 1.98594,6.901782 1.32336,1.829504 3.24457,3.437856 5.76812,4.823249 2.51997,1.38901 5.70342,2.647619 9.55032,3.782197 3.84422,1.135469 8.28809,2.333859 13.33341,3.592493 6.55206,1.768368 12.50989,3.659033 17.86896,5.6737298 5.35819,2.018315 9.89734,4.539177 13.61751,7.565286 3.71655,3.025192 6.58624,6.650968 8.60545,10.873658 2.0138,4.2254172 3.02519,9.4271552 3.02519,15.6016472 0,7.187688 -1.35662,13.332491 -4.06627,18.439861 -2.71235,5.105536 -6.36779,9.236534 -10.96808,12.385834 -4.6048,3.153759 -9.90004,5.454362 -15.88572,6.904484 -5.99019,1.44742 -12.26358,2.172927 -18.81654,2.172927 -10.08793,0 -20.04641,-1.513042 -29.88082,-4.537368 -9.83351,-3.026109 -18.66011,-7.310853 -26.47621,-12.8605 l 11.53626,-22.505238 c 1.13456,1.135469 3.18254,2.618848 6.14571,4.444758 2.96138,1.829529 6.46038,3.658141 10.49609,5.484051 4.03392,1.829504 8.51105,3.374018 13.42691,4.633545 4.91675,1.262227 9.95845,1.891557 15.13055,1.891557 14.37087,0 21.55764,-4.601205 21.55764,-13.8054 0,-2.899351 -0.82168,-5.358159 -2.45881,-7.375583 -1.63893,-2.015588 -3.97098,-3.782171 -6.9962,-5.296131 -3.027,-1.51215 -6.68333,-2.898459 -10.96897,-4.160687 -4.28655,-1.2586092 -9.07654,-2.6467022 -14.37267,-4.1588782 -6.42891,-1.764774 -12.00915,-3.687778 -16.73621,-5.76812198 -4.72796,-2.08034402 -8.67017,-4.53915102 -11.81944,-7.37647502 -3.15288,-2.837323 -5.51731,-6.1133548 -7.09239,-9.8334988 -1.57779,-3.717467 -2.36353,-8.162226 -2.36353,-13.332517 0,-6.809198 1.25863,-12.8605 3.78218,-18.155764 2.52086,-5.294322 6.01896,-9.705824 10.49519,-13.237207 4.47444,-3.528656 9.67438,-6.20864 15.60254,-8.038144 5.92455,-1.82591 12.29234,-2.742012 19.09973,-2.742012 9.45593,0 18.15577,1.483378 26.09863,4.443866 7.94286,2.964056 14.87433,6.462156 20.80157,10.496977 l -11.53535,21.180066"
         style="fill:#aedb2e;fill-opacity:1;fill-rule:nonzero;stroke:none;stroke-width:0.08990225"
         id="path38"
         inkscape:connector-curvature="0" />
      <path
         d="M 143.31854,43.831233 133.06249,32.522435 c -2.63593,-2.912833 -5.30963,-5.794193 -7.97703,-8.680063 -0.92869,0.751577 -1.85738,1.50137 -2.78337,2.255648 l 0.42434,-4.809767 c 0.78395,0.853182 1.57239,1.702746 2.35903,2.554119 3.98987,-3.232888 7.98872,-6.452269 11.91924,-9.759774 4.85922,-4.05819 9.76069,-8.0624302 14.56057,-12.1970472 l 7.23264,-6.161011 7.16521,-6.2454898 c 2.39769,-2.069564 4.74954,-4.198455 7.11846,-6.30576 2.37072,-2.103713 4.70728,-4.252379 7.03665,-6.410016 -2.65751,1.736894 -5.30783,3.48281 -7.92398,5.273654 -2.61886,1.787251 -5.25479,3.55205 -7.84397,5.377069 l -7.79633,5.4372878 -7.7307,5.522684 c -5.17477,3.65363 -10.24795,7.438503 -15.36339,11.16856 -5.12892,3.7129572 -10.15176,7.5607762 -15.22135,11.3510522 l -2.80765,2.09831 2.38421,2.711457 c 3.36054,3.820857 6.68513,7.67497 10.07534,11.469731 l 10.15716,11.396923 2.09922,2.356336 4.47983,-5.653953 -1.30808,-1.441152"
         style="fill:#61a431;fill-opacity:1;fill-rule:nonzero;stroke:none;stroke-width:0.08990225"
         id="path40"
         inkscape:connector-curvature="0" />
      <path
         d="m 122.30209,26.09802 c 0.92599,-0.754278 1.85468,-1.504071 2.78337,-2.255648 -0.78664,-0.851373 -1.57508,-1.700937 -2.35903,-2.554119 l -0.42434,4.809767"
         style="fill:#61a431;fill-opacity:1;fill-rule:nonzero;stroke:none;stroke-width:0.08990225"
         id="path42"
         inkscape:connector-curvature="0" />
      <path
         d="m 211.04011,102.70103 -8.82031,7.56348 c 0.61133,0.71202 1.23346,1.41146 1.8421,2.12349 l -4.08426,-0.20311 2.24216,-1.92031 c -2.70696,-3.14927 -5.41841,-6.29406 -8.16223,-9.41097 L 184.00201,89.366814 c -3.34616,-3.83523 -6.70312,-7.65877 -10.08883,-11.45625 l -0.30207,-0.33983 -20.48334,-12.142184 5.29615,5.876888 10.26594,11.300716 c 3.41808,3.76872 6.86493,7.51223 10.32257,11.24678 l 10.35674,11.217986 c 3.44146,3.74803 6.91348,7.4682 10.40799,11.16856 l 2.05336,2.17563 2.03089,-1.97244 10.45653,-10.14996 2.90115,-2.87688 -4.11932,-2.44176 -2.05966,1.72704"
         style="fill:#61a431;fill-opacity:1;fill-rule:nonzero;stroke:none;stroke-width:0.08990225"
         id="path44"
         inkscape:connector-curvature="0" />
      <path
         d="m 283.14442,-110.71701 c 0.58794,0.67696 1.18761,1.34134 1.77736,2.0165 l 2.28351,-1.82861 -4.06087,-0.18789"
         style="fill:#61a431;fill-opacity:1;fill-rule:nonzero;stroke:none;stroke-width:0.08990225"
         id="path48"
         inkscape:connector-curvature="0" />
      <path
         d="m 360.28953,-30.853261 c -0.85137,0.764191 -1.70545,1.526548 -2.55771,2.288931 0.76595,0.810012 1.53012,1.61824 2.29161,2.430954 l 0.2661,-4.719885"
         style="fill:#61a431;fill-opacity:1;fill-rule:nonzero;stroke:none;stroke-width:0.08990225"
         id="path50"
         inkscape:connector-curvature="0" />
      <path
         d="m 364.89341,-30.593425 c -3.17534,-3.549349 -6.31562,-7.131955 -9.51884,-10.656126 l -9.59976,-10.5824 -4.21732,-4.649727 -3.72914,6.496331 2.71776,2.940712 9.69774,10.492492 c 2.47591,2.68266 4.98329,5.332981 7.48797,7.987813 0.85226,-0.762383 1.70634,-1.52474 2.55771,-2.288931 l -0.2661,4.719885 c -0.76149,-0.812714 -1.52566,-1.620942 -2.29161,-2.430954 -5.56856,4.985964 -11.15689,9.951261 -16.66161,15.010976 -6.36236,5.8166688 -12.77059,11.5830078 -19.07006,17.4724848 l -3.40819,3.274248 -9.41275,8.8760622 c -3.14658,2.947873 -6.24552,5.952423 -9.36154,8.935362 -3.11961,2.980264 -6.20056,6.00278 -9.2743,9.034292 3.42438,-2.628736 6.84156,-5.266467 10.22188,-7.946452 3.38212,-2.677309 6.78402,-5.333924 10.13467,-8.046273 l 10.08615,-8.1046832 3.94132,-2.661993 c 6.69951,-5.430993 13.28845,-10.986068 19.92591,-16.489869 6.64919,-5.4867528 13.18777,-11.1029388 19.77401,-16.6633908 l 2.55682,-2.158554 -2.29072,-2.561305"
         style="fill:#61a431;fill-opacity:1;fill-rule:nonzero;stroke:none;stroke-width:0.08990225"
         id="path52"
         inkscape:connector-curvature="0" />
      <path
         d="m 326.51234,-72.938291 -9.70674,-10.483501 c -3.23197,-3.498098 -6.49363,-6.969224 -9.76428,-10.431358 l -9.79754,-10.40079 c -3.25447,-3.47742 -6.54218,-6.92607 -9.84879,-10.35404 l -2.11271,-2.18823 -1.94818,1.99943 -2.48129,2.54603 c -0.82352,0.85228 -1.6623,1.68837 -2.47323,2.55502 l -4.84662,5.21793 c -0.52864,0.59695 -1.05366,1.1993 -1.58409,1.79355 l 2.46783,2.03899 c 0.51962,-0.37939 1.04556,-0.75339 1.5661,-1.13098 l 5.66384,-4.318 c 0.94128,-0.72282 1.85558,-1.4762 2.78338,-2.2134 l 0.49176,-0.39287 c -0.58975,-0.67516 -1.18942,-1.33954 -1.77736,-2.0165 l 4.06087,0.18789 -2.28351,1.82861 c 2.54334,2.91373 5.09206,5.82297 7.67135,8.703439 l 9.49907,10.674994 c 3.16098,3.562825 6.33273,7.115762 9.53325,10.643518 l 1.65958,1.832205 20.33231,11.645954 -7.105,-7.737891"
         style="fill:#61a431;fill-opacity:1;fill-rule:nonzero;stroke:none;stroke-width:0.08990225"
         id="path54"
         inkscape:connector-curvature="0" />
      <path
         d="m 180.10744,-3.4977872 c -1.50406,2.60445002 -3.01712,5.201738 -4.57692,7.766637 -1.55621,2.566707 -3.08814,5.150515 -4.68391,7.6902602 l -4.74684,7.646173 -4.83494,7.584145 c -3.19423,5.076789 -6.52511,10.057376 -9.79845,15.078407 -3.25626,5.033645 -6.65187,9.967469 -9.98814,14.945354 l -0.99432,-4.725262 c 4.15349,2.44176 8.33034,4.844834 12.46135,7.318958 l 12.40652,7.413324 12.40471,7.414243 12.36156,7.486162 12.32919,7.53921 c 4.11213,2.50736 8.20448,5.04891 12.28964,7.60392 l 12.26626,7.642576 c 4.09685,2.53345 8.17122,5.10556 12.2303,7.70283 l -3.96558,0.99434 3.70848,-5.814 3.71833,-5.81127 7.56348,-11.546146 c 2.57032,-3.81816 5.11815,-7.64977 7.71992,-11.45085 2.60537,-3.79838 5.22332,-7.588656 7.92846,-11.327683 -1.98682,4.166064 -4.06446,8.276393 -6.15199,12.382243 -2.09293,4.10222 -4.23711,8.1757 -6.36149,12.25816 l -6.51792,12.165566 -3.32098,6.04684 -3.33269,6.03963 -1.36561,2.47502 -2.60086,-1.48071 c -4.18765,-2.3824 -8.36001,-4.7918 -12.51081,-7.23712 l -12.47573,-7.29738 c -4.16158,-2.42555 -8.31776,-4.862786 -12.45236,-7.336026 l -12.4119,-7.40162 -12.38044,-7.45112 -12.33639,-7.529305 -12.33639,-7.526627 c -4.11483,-2.503762 -8.1856,-5.082167 -12.28065,-7.620995 l -3.07196,-1.903229 2.07764,-2.820249 c 3.55294,-4.82595 7.04474,-9.692368 10.6768,-14.460774 3.61496,-4.780996 7.1733,-9.60246 10.86738,-14.327722 l 5.49752,-7.119366 5.58563,-7.05642 c 1.84839,-2.3617392 3.75971,-4.6785242 5.64766,-7.0132752 1.88525,-2.335669 3.81635,-4.638947 5.75644,-6.936849"
         style="fill:#61a431;fill-opacity:1;fill-rule:nonzero;stroke:none;stroke-width:0.08990225"
         id="path56"
         inkscape:connector-curvature="0" />
      <path
         d="m 291.91617,24.631716 c 1.9356,-3.59968 3.88289,-7.193066 5.8787,-10.756788 1.99225,-3.566423 3.9584,-7.1472452 5.9893,-10.6884902 l 6.05581,-10.648022 6.14751,-10.5895868 c 4.06807,-7.078896 8.27642,-14.069695 12.42719,-21.096451 4.13192,-7.039346 8.40947,-13.987 12.62317,-20.974205 l 1.11839,4.59221 c -3.90984,-2.246653 -7.84306,-4.452863 -11.73043,-6.73369 l -11.67562,-6.828057 -11.67651,-6.828974 -11.63155,-6.901808 -11.60008,-6.953938 c -3.86938,-2.314084 -7.71812,-4.661432 -11.56143,-7.021364 l -11.53894,-7.059132 c -3.85412,-2.34015 -7.68575,-4.71717 -11.50302,-7.12025 l 3.93954,-1.00062 -1.91133,2.76989 c -0.641,0.9206 -1.26312,1.85469 -1.92122,2.7654 l -3.96918,5.45437 c -1.37102,1.788152 -2.72134,3.589794 -4.1247,5.35997 -1.40787,1.766578 -2.82654,3.527764 -4.33329,5.235905 0.79024,-2.136974 1.67038,-4.219112 2.55952,-6.296752 0.89541,-2.073147 1.84298,-4.115723 2.76897,-6.170893 l 2.92543,-6.07739 c 0.48995,-1.0114 1.01768,-2.00033 1.52474,-3.00184 l 1.53554,-2.99464 1.27212,-2.4822 2.66739,1.47979 c 3.944,2.18822 7.87184,4.40161 11.77898,6.65187 l 11.74573,6.7121 c 3.91705,2.22958 7.8296,4.473535 11.72146,6.749861 l 11.68099,6.817288 11.65225,6.868531 11.60727,6.943143 11.60638,6.943168 c 3.8721,2.308681 7.70104,4.692897 11.55245,7.036645 l 2.9389,1.787251 -1.82053,2.80585 c -4.43936,6.846049 -8.81582,13.732566 -13.337,20.527366 -4.50409,6.805606 -8.94887,13.648979 -13.53387,20.404227 l -6.83349,10.1607408 -6.92426,10.104114 c -2.29611,3.375828 -4.65604,6.7112132 -6.99079,10.0627802 -2.33027,3.35335 -4.71178,6.67612 -7.10049,9.992621"
         style="fill:#61a431;fill-opacity:1;fill-rule:nonzero;stroke:none;stroke-width:0.08990225"
         id="path58"
         inkscape:connector-curvature="0" />
      <path
         d="m 300.19797,40.627117 c 0,3.082761 -2.49838,5.582038 -5.58204,5.582038 -3.08365,0 -5.58203,-2.499277 -5.58203,-5.582038 0,-3.082735 2.49838,-5.582011 5.58203,-5.582011 3.08366,0 5.58204,2.499276 5.58204,5.582011"
         style="fill:#aedb2e;fill-opacity:1;fill-rule:nonzero;stroke:none;stroke-width:0.08990225"
         id="path60"
         inkscape:connector-curvature="0" />
      <path
         d="m 286.56969,56.50835 c 0,2.249354 -1.82413,4.073481 -4.07438,4.073481 -2.24935,0 -4.07256,-1.824127 -4.07256,-4.073481 0,-2.250246 1.82321,-4.073455 4.07256,-4.073455 2.25025,0 4.07438,1.823209 4.07438,4.073455"
         style="fill:#aedb2e;fill-opacity:1;fill-rule:nonzero;stroke:none;stroke-width:0.08990225"
         id="path62"
         inkscape:connector-curvature="0" />
      <path
         d="m 297.17994,52.434895 c 0,2.250246 -1.82232,4.073455 -4.07256,4.073455 -2.25025,0 -4.07348,-1.823209 -4.07348,-4.073455 0,-2.250271 1.82323,-4.07348 4.07348,-4.07348 2.25024,0 4.07256,1.823209 4.07256,4.07348"
         style="fill:#aedb2e;fill-opacity:1;fill-rule:nonzero;stroke:none;stroke-width:0.08990225"
         id="path64"
         inkscape:connector-curvature="0" />
      <path
         d="m 272.18801,81.008514 c 0,2.24846 -1.8241,4.07258 -4.07437,4.07258 -2.24935,0 -4.07256,-1.82412 -4.07256,-4.07258 0,-2.24936 1.82321,-4.07435 4.07256,-4.07435 2.25027,0 4.07437,1.82499 4.07437,4.07435"
         style="fill:#aedb2e;fill-opacity:1;fill-rule:nonzero;stroke:none;stroke-width:0.08990225"
         id="path66"
         inkscape:connector-curvature="0" />
      <path
         d="m 313.57453,45.807296 c 0,1.30448 -1.05726,2.361739 -2.36353,2.361739 -1.3054,0 -2.36263,-1.057259 -2.36263,-2.361739 0,-1.306289 1.05723,-2.363523 2.36263,-2.363523 1.30627,0 2.36353,1.057234 2.36353,2.363523"
         style="fill:#aedb2e;fill-opacity:1;fill-rule:nonzero;stroke:none;stroke-width:0.08990225"
         id="path68"
         inkscape:connector-curvature="0" />
      <path
         d="m 273.59229,71.548098 c 0,0.774971 -0.62752,1.405193 -1.40428,1.405193 -0.77764,0 -1.40516,-0.630222 -1.40516,-1.405193 0,-0.777648 0.62752,-1.404276 1.40516,-1.404276 0.77676,0 1.40428,0.626628 1.40428,1.404276"
         style="fill:#aedb2e;fill-opacity:1;fill-rule:nonzero;stroke:none;stroke-width:0.08990225"
         id="path70"
         inkscape:connector-curvature="0" />
      <path
         d="m 301.60225,71.548098 c 0,0.774971 -0.62752,1.405193 -1.40428,1.405193 -0.77586,0 -1.40517,-0.630222 -1.40517,-1.405193 0,-0.777648 0.62931,-1.404276 1.40517,-1.404276 0.77676,0 1.40428,0.626628 1.40428,1.404276"
         style="fill:#aedb2e;fill-opacity:1;fill-rule:nonzero;stroke:none;stroke-width:0.08990225"
         id="path72"
         inkscape:connector-curvature="0" />
      <path
         d="m 321.46614,66.821944 c 0,0.775863 -0.62753,1.405168 -1.40428,1.405168 -0.77765,0 -1.40517,-0.629305 -1.40517,-1.405168 0,-0.777647 0.62752,-1.405168 1.40517,-1.405168 0.77675,0 1.40428,0.627521 1.40428,1.405168"
         style="fill:#aedb2e;fill-opacity:1;fill-rule:nonzero;stroke:none;stroke-width:0.08990225"
         id="path74"
         inkscape:connector-curvature="0" />
      <path
         d="m 285.95924,80.564394 c 0,0.77587 -0.62841,1.40517 -1.40517,1.40517 -0.77675,0 -1.40517,-0.6293 -1.40517,-1.40517 0,-0.77494 0.62842,-1.40427 1.40517,-1.40427 0.77676,0 1.40517,0.62933 1.40517,1.40427"
         style="fill:#aedb2e;fill-opacity:1;fill-rule:nonzero;stroke:none;stroke-width:0.08990225"
         id="path76"
         inkscape:connector-curvature="0" />
      <path
         d="m 324.83659,38.812904 c 0,0.776756 -0.62844,1.405168 -1.4052,1.405168 -0.77675,0 -1.40517,-0.628412 -1.40517,-1.405168 0,-0.775863 0.62842,-1.405167 1.40517,-1.405167 0.77676,0 1.4052,0.629304 1.4052,1.405167"
         style="fill:#aedb2e;fill-opacity:1;fill-rule:nonzero;stroke:none;stroke-width:0.08990225"
         id="path78"
         inkscape:connector-curvature="0" />
      <path
         d="m 308.84837,66.821944 c 0,1.302696 -1.05815,2.361739 -2.36355,2.361739 -1.30537,0 -2.36352,-1.059043 -2.36352,-2.361739 0,-1.30629 1.05815,-2.364415 2.36352,-2.364415 1.3054,0 2.36355,1.058125 2.36355,2.364415"
         style="fill:#aedb2e;fill-opacity:1;fill-rule:nonzero;stroke:none;stroke-width:0.08990225"
         id="path80"
         inkscape:connector-curvature="0" />
      <path
         d="m 310.23017,56.180217 c 0,2.068646 -1.67578,3.746239 -3.74535,3.746239 -2.06954,0 -3.74532,-1.677593 -3.74532,-3.746239 0,-2.067755 1.67578,-3.745322 3.74532,-3.745322 2.06957,0 3.74535,1.677567 3.74535,3.745322"
         style="fill:#aedb2e;fill-opacity:1;fill-rule:nonzero;stroke:none;stroke-width:0.08990225"
         id="path82"
         inkscape:connector-curvature="0" />
      <path
         d="m 283.1489,69.183683 c 0,1.305372 -1.05725,2.364415 -2.36263,2.364415 -1.30629,0 -2.36352,-1.059043 -2.36352,-2.364415 0,-1.30629 1.05723,-2.361739 2.36352,-2.361739 1.30538,0 2.36263,1.055449 2.36263,2.361739"
         style="fill:#aedb2e;fill-opacity:1;fill-rule:nonzero;stroke:none;stroke-width:0.08990225"
         id="path84"
         inkscape:connector-curvature="0" />
      <path
         d="m 308.84837,35.045106 c 0,1.305372 -1.05815,2.362631 -2.36355,2.362631 -1.30537,0 -2.36352,-1.057259 -2.36352,-2.362631 0,-1.305398 1.05815,-2.362631 2.36352,-2.362631 1.3054,0 2.36355,1.057233 2.36355,2.362631"
         style="fill:#aedb2e;fill-opacity:1;fill-rule:nonzero;stroke:none;stroke-width:0.08990225"
         id="path86"
         inkscape:connector-curvature="0" />
      <path
         d="m 315.93805,23.076421 c 0,1.305373 -1.05726,2.362631 -2.36352,2.362631 -1.30538,0 -2.36353,-1.057258 -2.36353,-2.362631 0,-1.305397 1.05815,-2.363548 2.36353,-2.363548 1.30626,0 2.36352,1.058151 2.36352,2.363548"
         style="fill:#aedb2e;fill-opacity:1;fill-rule:nonzero;stroke:none;stroke-width:0.08990225"
         id="path88"
         inkscape:connector-curvature="0" />
      <path
         d="m 276.0592,62.944462 c 0,1.305372 -1.05723,2.36444 -2.36352,2.36444 -1.30537,0 -2.36263,-1.059068 -2.36263,-2.36444 0,-1.30629 1.05726,-2.362631 2.36263,-2.362631 1.30629,0 2.36352,1.056341 2.36352,2.362631"
         style="fill:#aedb2e;fill-opacity:1;fill-rule:nonzero;stroke:none;stroke-width:0.08990225"
         id="path90"
         inkscape:connector-curvature="0" />
      <path
         d="m 320.06186,57.762499 c 0,1.303588 -1.05723,2.362631 -2.36352,2.362631 -1.30538,0 -2.36263,-1.059043 -2.36263,-2.362631 0,-1.305372 1.05725,-2.363523 2.36263,-2.363523 1.30629,0 2.36352,1.058151 2.36352,2.363523"
         style="fill:#aedb2e;fill-opacity:1;fill-rule:nonzero;stroke:none;stroke-width:0.08990225"
         id="path92"
         inkscape:connector-curvature="0" />
      <path
         d="m 297.08644,66.821944 c 0,2.42736 -1.96885,4.396211 -4.39891,4.396211 -2.43006,0 -4.39802,-1.968851 -4.39802,-4.396211 0,-2.430954 1.96796,-4.398913 4.39802,-4.398913 2.43006,0 4.39891,1.967959 4.39891,4.398913"
         style="fill:#aedb2e;fill-opacity:1;fill-rule:nonzero;stroke:none;stroke-width:0.08990225"
         id="path94"
         inkscape:connector-curvature="0" />
      <path
         d="m 167.43752,-30.059406 c -0.30028,-3.068362 1.94278,-5.799595 5.01115,-6.100766 3.06836,-0.300279 5.79959,1.943672 6.09987,5.011142 0.30027,3.068362 -1.94189,5.799595 -5.01115,6.099875 -3.06837,0.301171 -5.7996,-1.942806 -6.09987,-5.010251"
         style="fill:#aedb2e;fill-opacity:1;fill-rule:nonzero;stroke:none;stroke-width:0.08990225"
         id="path96"
         inkscape:connector-curvature="0" />
      <path
         d="m 176.46101,-47.337728 c -0.21937,-2.238574 1.41776,-4.232603 3.65722,-4.451053 2.23857,-0.220182 4.2317,1.417757 4.45106,3.656306 0.21937,2.238574 -1.41776,4.231711 -3.65722,4.451078 -2.23857,0.219419 -4.2317,-1.417757 -4.45106,-3.656331"
         style="fill:#aedb2e;fill-opacity:1;fill-rule:nonzero;stroke:none;stroke-width:0.08990225"
         id="path98"
         inkscape:connector-curvature="0" />
      <path
         d="m 166.29756,-42.249267 c -0.21937,-2.238548 1.41776,-4.231685 3.65722,-4.451053 2.23857,-0.219418 4.2308,1.417757 4.45106,3.656332 0.21937,2.238549 -1.41776,4.231686 -3.65632,4.451053 -2.24037,0.220182 -4.2326,-1.417757 -4.45196,-3.656332"
         style="fill:#aedb2e;fill-opacity:1;fill-rule:nonzero;stroke:none;stroke-width:0.08990225"
         id="path100"
         inkscape:connector-curvature="0" />
      <path
         d="m 188.38474,-73.124401 c -0.21937,-2.238549 1.41686,-4.231686 3.65633,-4.451053 2.23946,-0.219418 4.2317,1.417757 4.45106,3.656331 0.22025,2.238575 -1.41686,4.231686 -3.65633,4.451945 -2.23946,0.219418 -4.2317,-1.418649 -4.45106,-3.657223"
         style="fill:#aedb2e;fill-opacity:1;fill-rule:nonzero;stroke:none;stroke-width:0.08990225"
         id="path102"
         inkscape:connector-curvature="0" />
      <path
         d="m 150.62849,-34.053758 c -0.12676,-1.299103 0.82171,-2.45524 2.12169,-2.581998 1.29909,-0.127676 2.45523,0.821709 2.582,2.120786 0.12765,1.299078 -0.82081,2.45524 -2.1217,2.58289 -1.29908,0.126656 -2.45433,-0.822601 -2.58199,-2.121678"
         style="fill:#aedb2e;fill-opacity:1;fill-rule:nonzero;stroke:none;stroke-width:0.08990225"
         id="path104"
         inkscape:connector-curvature="0" />
      <path
         d="m 187.90916,-63.57138 c -0.0755,-0.772245 0.48817,-1.46001 1.26133,-1.534627 0.77226,-0.07645 1.45911,0.488173 1.53553,1.260418 0.0746,0.77227 -0.48907,1.459118 -1.26133,1.535544 -0.77316,0.07543 -1.46001,-0.489065 -1.53553,-1.261335"
         style="fill:#aedb2e;fill-opacity:1;fill-rule:nonzero;stroke:none;stroke-width:0.08990225"
         id="path106"
         inkscape:connector-curvature="0" />
      <path
         d="m 160.03227,-60.839255 c -0.0755,-0.772245 0.48907,-1.46001 1.26133,-1.535519 0.77316,-0.07543 1.46001,0.489065 1.53553,1.261335 0.0755,0.772245 -0.48817,1.459093 -1.26133,1.535519 -0.77316,0.07543 -1.45911,-0.489065 -1.53553,-1.261335"
         style="fill:#aedb2e;fill-opacity:1;fill-rule:nonzero;stroke:none;stroke-width:0.08990225"
         id="path108"
         inkscape:connector-curvature="0" />
      <path
         d="m 140.72486,-54.198175 c -0.0755,-0.772245 0.48817,-1.46001 1.26043,-1.535519 0.77316,-0.07543 1.46001,0.489065 1.53553,1.261335 0.0755,0.772245 -0.48817,1.459093 -1.26133,1.535519 -0.77226,0.07543 -1.45911,-0.489065 -1.53463,-1.261335"
         style="fill:#aedb2e;fill-opacity:1;fill-rule:nonzero;stroke:none;stroke-width:0.08990225"
         id="path110"
         inkscape:connector-curvature="0" />
      <path
         d="m 174.7223,-71.339826 c -0.0755,-0.77227 0.48817,-1.459117 1.26132,-1.535544 0.77316,-0.07543 1.45912,0.489091 1.53464,1.261335 0.0764,0.77227 -0.48817,1.459118 -1.26043,1.534627 -0.77316,0.07645 -1.45912,-0.488173 -1.53553,-1.260418"
         style="fill:#aedb2e;fill-opacity:1;fill-rule:nonzero;stroke:none;stroke-width:0.08990225"
         id="path112"
         inkscape:connector-curvature="0" />
      <path
         d="m 140.10274,-25.994921 c -0.0764,-0.773162 0.48817,-1.460035 1.26132,-1.535545 0.77316,-0.07543 1.46002,0.489066 1.53553,1.261336 0.0755,0.772244 -0.48816,1.459117 -1.26132,1.534627 -0.77406,0.07645 -1.46002,-0.488174 -1.53553,-1.260418"
         style="fill:#aedb2e;fill-opacity:1;fill-rule:nonzero;stroke:none;stroke-width:0.08990225"
         id="path114"
         inkscape:connector-curvature="0" />
      <path
         d="m 153.2824,-55.42893 c -0.12675,-1.299077 0.82171,-2.45524 2.1217,-2.58289 1.29999,-0.126656 2.45523,0.822602 2.58289,2.121705 0.12676,1.299077 -0.8226,2.455214 -2.12169,2.581972 -1.29909,0.127675 -2.45523,-0.821709 -2.5829,-2.120787"
         style="fill:#aedb2e;fill-opacity:1;fill-rule:nonzero;stroke:none;stroke-width:0.08990225"
         id="path116"
         inkscape:connector-curvature="0" />
      <path
         d="m 152.94437,-44.704481 c -0.20137,-2.058759 1.30358,-3.890989 3.36325,-4.093256 2.05966,-0.201325 3.89097,1.303588 4.09325,3.363238 0.20137,2.059651 -1.30358,3.890964 -3.36324,4.093256 -2.05877,0.201325 -3.89098,-1.303588 -4.09326,-3.363238"
         style="fill:#aedb2e;fill-opacity:1;fill-rule:nonzero;stroke:none;stroke-width:0.08990225"
         id="path118"
         inkscape:connector-curvature="0" />
      <path
         d="m 178.62855,-60.287244 c -0.12676,-1.299103 0.8217,-2.45524 2.12169,-2.58289 1.29909,-0.127675 2.45523,0.822601 2.58289,2.121679 0.12676,1.299103 -0.8226,2.45524 -2.12169,2.581998 -1.29999,0.127675 -2.45523,-0.82171 -2.58289,-2.120787"
         style="fill:#aedb2e;fill-opacity:1;fill-rule:nonzero;stroke:none;stroke-width:0.08990225"
         id="path120"
         inkscape:connector-curvature="0" />
      <path
         d="m 156.38224,-23.80492 c -0.12765,-1.299077 0.82171,-2.455214 2.12169,-2.581998 1.29909,-0.127675 2.45433,0.822627 2.58199,2.120812 0.12765,1.29997 -0.8217,2.455215 -2.12169,2.582891 -1.29909,0.127675 -2.45523,-0.822602 -2.58199,-2.121705"
         style="fill:#aedb2e;fill-opacity:1;fill-rule:nonzero;stroke:none;stroke-width:0.08990225"
         id="path122"
         inkscape:connector-curvature="0" />
      <path
         d="m 150.49364,-11.200611 c -0.12765,-1.299995 0.8217,-2.45524 2.12169,-2.58289 1.29999,-0.127675 2.45523,0.822601 2.58199,2.121679 0.12765,1.299103 -0.8217,2.4543478 -2.12169,2.5819978 -1.29909,0.127675 -2.45523,-0.822601 -2.58199,-2.1207868"
         style="fill:#aedb2e;fill-opacity:1;fill-rule:nonzero;stroke:none;stroke-width:0.08990225"
         id="path124"
         inkscape:connector-curvature="0" />
      <path
         d="m 184.59986,-55.42893 c -0.12765,-1.299077 0.8217,-2.45524 2.12169,-2.58289 1.29999,-0.126656 2.45523,0.822602 2.58199,2.121705 0.12765,1.299077 -0.8217,2.455214 -2.12169,2.581972 -1.29909,0.127675 -2.45523,-0.821709 -2.58199,-2.120787"
         style="fill:#aedb2e;fill-opacity:1;fill-rule:nonzero;stroke:none;stroke-width:0.08990225"
         id="path126"
         inkscape:connector-curvature="0" />
      <path
         d="m 143.00658,-45.319413 c -0.12765,-1.299103 0.82081,-2.45524 2.12169,-2.58289 1.29909,-0.12691 2.45523,0.822602 2.58199,2.121679 0.12765,1.299103 -0.8217,2.45524 -2.12169,2.58289 -1.29909,0.126656 -2.45523,-0.822601 -2.58199,-2.121679"
         style="fill:#aedb2e;fill-opacity:1;fill-rule:nonzero;stroke:none;stroke-width:0.08990225"
         id="path128"
         inkscape:connector-curvature="0" />
      <path
         d="m 164.98858,-56.576071 c -0.23733,-2.41839 1.53014,-4.56884 3.94851,-4.806174 2.41837,-0.237257 4.56973,1.529225 4.80707,3.947589 0.23644,2.41839 -1.53014,4.569733 -3.94941,4.806174 -2.41836,0.237257 -4.56883,-1.530116 -4.80617,-3.947589"
         style="fill:#aedb2e;fill-opacity:1;fill-rule:nonzero;stroke:none;stroke-width:0.08990225"
         id="path130"
         inkscape:connector-curvature="0" />
    </g>
    <text
       xml:space="preserve"
       style="font-style:normal;font-weight:normal;font-size:36.25248337px;line-height:125%;font-family:sans-serif;letter-spacing:0px;word-spacing:0px;fill:#008000;fill-opacity:1;stroke:none;stroke-width:0.90631205px;stroke-linecap:butt;stroke-linejoin:miter;stroke-opacity:1;"
       x="98.50251"
       y="182.99577"
       id="text457"><tspan
         sodipodi:role="line"
         id="tspan455"
         x="98.50251"
         y="182.99577"
         style="font-style:normal;font-variant:normal;font-weight:600;font-stretch:normal;font-family:'Open Sans';-inkscape-font-specification:'Open Sans Semi-Bold';stroke-width:0.90631205px;fill:#008000;">Controle de caixa</tspan></text>
  </g>
</svg>
