<svg height='300px' width='300px'  fill="#53565A" xmlns="http://www.w3.org/2000/svg" xmlns:xlink="http://www.w3.org/1999/xlink" version="1.1" x="0px" y="0px" viewBox="0 0 100 100" style="enable-background:new 0 0 100 100;" xml:space="preserve"><style type="text/css">
	.st0{fill:none;stroke:#000000;stroke-width:2;stroke-miterlimit:10;}
</style><g><path d="M84.5,15.1L73.7,25.9c-22.9-9.2-50.1-4.5-68.6,14l6.4,6.4C26.4,31.5,47.8,27,66.6,33l-7.4,7.4c-14.4-3-30,1.1-41.2,12.4   l6.4,6.4c7.3-7.3,17-10.9,26.7-10.6l-11,11c-3.4,1.3-6.5,3.3-9.3,6.1l1.6,1.6L20.8,78.7l3.5,3.5L88,18.6L84.5,15.1z"></path><path d="M43.6,78.5l6.4,6.4l6.4-6.4C52.9,74.9,47.1,74.9,43.6,78.5z"></path><path d="M46.6,67.1c5.7-1.1,11.9,0.6,16.3,5l6.4-6.4c-3.9-3.9-8.8-6.4-13.8-7.4L46.6,67.1z"></path><path d="M62.8,50.9c4.7,1.8,9.1,4.5,12.9,8.3l6.4-6.4c-3.7-3.7-7.9-6.7-12.4-8.8L62.8,50.9z"></path><path d="M83.1,30.6l-6.6,6.6c4.3,2.4,8.4,5.4,12.1,9.1l6.4-6.4C91.3,36.3,87.3,33.2,83.1,30.6z"></path></g></svg>